<svg width="148" height="60" viewBox="0 0 148 60" fill="none" xmlns="http://www.w3.org/2000/svg">
<g clip-path="url(#clip0_2_2)">
<g clip-path="url(#clip1_2_2)">
<path fill-rule="evenodd" clip-rule="evenodd" d="M35.5589 25.4518C37.7641 25.8193 39.4181 27.7489 39.4181 29.9541C39.4181 32.2512 37.7641 34.1807 35.5589 34.5483L36.7534 36.7535L34.5482 35.559C34.5482 35.559 33.8132 39.4181 29.954 39.4181C27.7488 39.4181 25.8193 37.7642 25.4517 35.6509L23.1547 36.7535L24.3491 34.5483C22.2358 34.1807 20.5819 32.2512 20.5819 29.9541C20.5819 27.7489 22.1439 25.8193 24.3491 25.4518L23.1547 23.1547L25.4517 24.3492C26.003 22.144 27.6569 20.5819 29.954 20.5819C33.8132 20.5819 34.5482 24.3492 34.5482 24.3492L36.7534 23.1547L35.5589 25.4518V25.4518ZM26.6462 33.3538C26.6462 35.6509 26.83 38.0398 29.954 38.0398C32.4349 38.0398 33.9969 35.6509 33.3537 33.3538C35.6508 33.997 38.0398 32.4349 38.0398 29.9541C38.0398 27.5651 35.5589 26.0031 33.3537 26.6463C33.9969 24.3492 32.4349 21.9602 29.954 21.9602C27.5651 21.9602 26.003 24.3492 26.6462 26.6463C24.3491 25.9112 21.9602 27.5651 21.9602 29.9541C21.9602 32.4349 24.3491 33.997 26.6462 33.3538V33.3538Z" fill="white"/>
<path fill-rule="evenodd" clip-rule="evenodd" d="M32.5268 27.4732L29.9541 28.8515L27.4732 27.4732L28.8515 29.9541L27.4732 32.5268L29.9541 31.1486L32.5268 32.5268L31.1486 29.9541L32.5268 27.4732Z" fill="white"/>
<path fill-rule="evenodd" clip-rule="evenodd" d="M13.5069 24.9924C13.7826 24.7167 14.242 24.7167 14.6095 24.9924L18.4686 28.8515L19.5712 29.9541L19.8469 30.2297C19.8469 30.781 19.9388 31.2404 20.1225 31.6999L19.5712 32.2512L18.4686 31.0567L14.6095 34.9158C14.242 35.2833 13.7826 35.2833 13.5069 34.9158C13.1394 34.6401 13.1394 34.1807 13.5069 33.8132L17.2741 29.9541L13.5069 26.095C13.1394 25.8193 13.1394 25.3599 13.5069 24.9924V24.9924Z" fill="white"/>
<path fill-rule="evenodd" clip-rule="evenodd" d="M36.0184 24.9923V25.0842L36.6616 23.9816L36.8453 24.1654L38.0398 25.3599L37.7642 25.7274C37.2129 25.3599 36.6616 25.1761 36.0184 24.9923V24.9923Z" fill="white"/>
<path fill-rule="evenodd" clip-rule="evenodd" d="M25.3599 20.6738L19.2955 14.7014C19.0199 14.3338 19.0199 13.8744 19.2955 13.5988C19.6631 13.2312 20.1225 13.2312 20.49 13.5988L26.4625 19.5712L25.3599 20.6738V20.6738Z" fill="white"/>
<path fill-rule="evenodd" clip-rule="evenodd" d="M37.4885 23.6141L37.0291 23.2465L37.3048 22.6034L36.7535 22.9709L36.3859 22.5115L45.2986 13.5988C45.5743 13.3231 46.0337 13.3231 46.4012 13.5988C46.6769 13.8744 46.6769 14.4257 46.4012 14.7014L37.4885 23.6141V23.6141Z" fill="white"/>
<path fill-rule="evenodd" clip-rule="evenodd" d="M31.6998 40.9801L32.8943 39.7856L39.51 46.4012C39.7856 46.7688 40.3369 46.7688 40.6126 46.4012C40.9801 46.1256 40.9801 45.5743 40.6126 45.2986L33.9969 38.683L35.7427 36.8453L45.2986 46.4012C45.5743 46.6769 46.0337 46.6769 46.4012 46.4012C46.6769 46.0337 46.6769 45.5743 46.4012 45.2986L36.8453 35.7427L38.683 33.9969L45.2986 40.6125C45.5743 40.9801 46.1256 40.9801 46.4012 40.6125C46.7688 40.3369 46.7688 39.7856 46.4012 39.5099L39.7856 32.8943L41.5314 31.0567L45.3905 34.9158C45.6662 35.2833 46.2175 35.2833 46.4931 34.9158C46.7688 34.6401 46.7688 34.1807 46.4931 33.8132L39.7856 27.1057L46.4012 20.49C46.6769 20.1225 46.7688 19.6631 46.4012 19.2955C46.1256 19.0199 45.5743 19.0199 45.2986 19.2955L38.683 26.003L38.4073 26.1868C39.4181 27.0138 40.0613 28.3001 40.1531 29.6784L40.4288 29.954L40.1531 30.2297C39.9694 32.6187 38.3155 34.5482 36.0184 34.9158L37.3047 37.3047L34.9158 36.0184C34.5482 38.1317 32.8943 39.7856 30.781 40.0612L31.6998 40.9801V40.9801Z" fill="white"/>
<path fill-rule="evenodd" clip-rule="evenodd" d="M33.9969 21.317L40.6126 14.7014C40.9801 14.3338 40.9801 13.8744 40.6126 13.5988C40.3369 13.2312 39.7856 13.2312 39.51 13.5988L33.4456 19.6631L32.5268 20.49C33.8132 21.2251 34.6401 22.5115 34.9158 23.8897L36.0184 23.3384L35.7427 23.0628L33.9969 21.317V21.317Z" fill="white"/>
<path fill-rule="evenodd" clip-rule="evenodd" d="M43.2772 29.4028L42.0827 28.3002L45.3905 24.9924C45.6662 24.7167 46.2175 24.7167 46.4931 24.9924C46.7688 25.3599 46.7688 25.8193 46.4931 26.095L43.2772 29.4028V29.4028Z" fill="white"/>
<path fill-rule="evenodd" clip-rule="evenodd" d="M31.6998 17.8254L30.5972 16.7228L33.8132 13.5069C34.1807 13.1393 34.6401 13.1393 34.9158 13.5069C35.2833 13.7825 35.2833 14.242 34.9158 14.6095L31.6998 17.8254Z" fill="white"/>
<path fill-rule="evenodd" clip-rule="evenodd" d="M14.7014 40.6126L21.317 33.9969L23.0628 35.7427L13.5988 45.2986C13.3231 45.5743 13.3231 46.0337 13.5988 46.4012C13.8744 46.6769 14.4257 46.6769 14.7014 46.4012L24.1654 36.8453L25.3599 38.0398L25.7274 37.7642C25.3599 37.2129 25.1761 36.6616 25.0842 36.0184L22.6034 37.3047L23.8897 34.9158C22.5115 34.6401 21.2251 33.8132 20.49 32.5268L20.2144 32.8943L19.8469 33.17L13.5988 39.51C13.2312 39.7856 13.2312 40.3369 13.5988 40.6126C13.8744 40.9801 14.3338 40.9801 14.7014 40.6126Z" fill="white"/>
<path fill-rule="evenodd" clip-rule="evenodd" d="M26.1868 38.4073C27.1057 39.4181 28.3001 40.0613 29.6784 40.1531L29.954 40.4288L31.0566 41.5314L34.9158 45.3905C35.2833 45.6662 35.2833 46.2175 34.9158 46.4931C34.6401 46.7688 34.1807 46.7688 33.8132 46.4931L29.954 42.634L26.0949 46.4931C25.8193 46.7688 25.3599 46.7688 24.9923 46.4931C24.7167 46.2175 24.7167 45.6662 24.9923 45.3905L28.8514 41.5314L27.1057 39.7856L20.49 46.4012C20.1225 46.7688 19.6631 46.7688 19.2955 46.4012C19.0199 46.1256 19.0199 45.5743 19.2955 45.2986L25.5436 39.0505L26.1868 38.4073V38.4073Z" fill="white"/>
<path fill-rule="evenodd" clip-rule="evenodd" d="M13.5988 19.2955C13.2312 19.6631 13.2312 20.1225 13.5988 20.49L19.5712 26.4625L20.6738 25.3599L14.7014 19.2955C14.3338 19.0199 13.8744 19.0199 13.5988 19.2955V19.2955Z" fill="white"/>
<path fill-rule="evenodd" clip-rule="evenodd" d="M32.2511 19.5712L26.0949 13.5069C25.8193 13.1393 25.3599 13.1393 24.9923 13.5069C24.7167 13.7825 24.7167 14.242 24.9923 14.6095L28.8514 18.4686L24.1654 23.0628L14.7014 13.5988C14.4257 13.3231 13.8744 13.3231 13.5988 13.5988C13.3231 13.8744 13.3231 14.4257 13.5988 14.7014L23.0628 24.1654L19.0199 28.3001L19.8469 29.219C20.2144 27.1057 21.8683 25.4518 23.8897 24.9923V25.0842L22.6034 22.6034L25.0842 23.8897C25.4518 21.6845 27.3813 19.9387 29.6784 19.8469L29.954 19.5712L30.2297 19.8469C30.781 19.8469 31.2404 19.9387 31.6998 20.1225L32.2511 19.5712V19.5712Z" fill="white"/>
<path fill-rule="evenodd" clip-rule="evenodd" d="M3.21591 3.21594H56.7841V56.7841H3.21591V3.21594V3.21594ZM57.4272 2.02145H2.02142V57.9786H57.9785V2.02145H57.4272V2.02145Z" fill="white"/>
<path fill-rule="evenodd" clip-rule="evenodd" d="M25.0842 25.3599H24.9923H24.9004H24.8086H24.7167C24.9004 25.3599 25.0842 25.3599 25.268 25.3599H25.3599V25.268V25.3599H25.268H25.0842V25.3599Z" fill="white"/>
<path fill-rule="evenodd" clip-rule="evenodd" d="M34.8239 34.6401H35.0077H35.0996H35.1914C35.0996 34.6401 34.9158 34.6401 34.732 34.6401H34.6401V34.732V34.6401H34.732H34.8239V34.6401Z" fill="white"/>
<path fill-rule="evenodd" clip-rule="evenodd" d="M24.8086 34.6401H24.9004H24.9923H25.0842H25.268H25.3599V34.732V34.6401H25.268C25.0842 34.6401 24.9004 34.6401 24.7167 34.6401H24.8086V34.6401Z" fill="white"/>
</g>
<path d="M81.0928 38.9897C82.6598 38.9897 83.8969 38.4536 84.8041 37.3814C85.7388 36.3093 86.2062 34.8522 86.2062 33.0103V21.8351H89.6289V33.134C89.6289 35.9931 88.8454 38.2199 87.2784 39.8144C85.7113 41.4089 83.6495 42.2062 81.0928 42.2062C78.5361 42.2062 76.4742 41.4089 74.9072 39.8144C73.3402 38.2199 72.5567 35.9931 72.5567 33.134V21.8351H75.9381V33.0103C75.9381 34.8797 76.4055 36.3368 77.3402 37.3814C78.2474 38.4536 79.4983 38.9897 81.0928 38.9897ZM105.301 24.9278H93.9195V21.8351H110.043V24.4742L98.2906 38.7835V38.866H110.208V42H93.5483V39.3608L105.301 25.0103V24.9278ZM122.113 24.9278V42H118.69V24.9278H112.587V21.8351H128.216V24.9278H122.113ZM134.666 26.9072C134.666 27.7594 134.983 28.378 135.615 28.7629C136.247 29.2302 137.594 29.7113 139.656 30.2062C141.828 30.7285 143.409 31.4433 144.398 32.3505C145.416 33.2577 145.924 34.5636 145.924 36.268C145.924 38.055 145.251 39.4983 143.904 40.5979C142.584 41.6976 140.852 42.2474 138.708 42.2474C135.601 42.2474 132.797 41.1478 130.295 38.9485L132.44 36.3918C134.529 38.1787 136.646 39.0722 138.79 39.0722C139.862 39.0722 140.728 38.8385 141.388 38.3711C142.048 37.8763 142.378 37.244 142.378 36.4742C142.378 35.7045 142.075 35.0997 141.471 34.6598C140.893 34.2199 139.849 33.8213 138.337 33.4639C135.725 32.8591 133.91 32.1443 132.893 31.3196C131.711 30.4124 131.12 29.0241 131.12 27.1546C131.12 25.3402 131.78 23.9244 133.099 22.9072C134.419 21.8625 136.11 21.3402 138.172 21.3402C140.948 21.3402 143.326 22.1512 145.306 23.7732L143.491 26.3299C142.886 25.7801 142.075 25.3402 141.058 25.0103C140.041 24.6529 139.038 24.4742 138.048 24.4742C137.031 24.4742 136.206 24.6942 135.574 25.134C134.969 25.5464 134.666 26.1375 134.666 26.9072Z" fill="white"/>
</g>
<defs>
<clipPath id="clip0_2_2">
<rect width="148" height="60" fill="white"/>
</clipPath>
<clipPath id="clip1_2_2">
<rect width="60" height="60" fill="white"/>
</clipPath>
</defs>
</svg>
