<svg width="95" height="95" viewBox="0 0 95 95" fill="none" xmlns="http://www.w3.org/2000/svg">
<g clip-path="url(#clip0_2_2)">
<path fill-rule="evenodd" clip-rule="evenodd" d="M55.3384 41.1776C58.6462 41.7289 61.1271 44.6233 61.1271 47.9311C61.1271 51.3767 58.6462 54.2711 55.3384 54.8224L57.1302 58.1302L53.8224 56.3384C53.8224 56.3384 52.7198 62.1271 46.9311 62.1271C43.6233 62.1271 40.7289 59.6463 40.1776 56.4763L36.732 58.1302L38.5237 54.8224C35.3538 54.2711 32.8729 51.3767 32.8729 47.9311C32.8729 44.6233 35.2159 41.7289 38.5237 41.1776L36.732 37.732L40.1776 39.5237C41.0046 36.2159 43.4855 33.8729 46.9311 33.8729C52.7198 33.8729 53.8224 39.5237 53.8224 39.5237L57.1302 37.732L55.3384 41.1776V41.1776ZM41.9694 53.0306C41.9694 56.4763 42.245 60.0597 46.9311 60.0597C50.6524 60.0597 52.9954 56.4763 52.0306 53.0306C55.4763 53.9954 59.0597 51.6524 59.0597 47.9311C59.0597 44.3476 55.3384 42.0046 52.0306 42.9694C52.9954 39.5237 50.6524 35.9403 46.9311 35.9403C43.3476 35.9403 41.0046 39.5237 41.9694 42.9694C38.5237 41.8668 34.9403 44.3476 34.9403 47.9311C34.9403 51.6524 38.5237 53.9954 41.9694 53.0306V53.0306Z" fill="white"/>
<path fill-rule="evenodd" clip-rule="evenodd" d="M50.7902 44.2098L46.9311 46.2772L43.2098 44.2098L45.2772 47.9311L43.2098 51.7902L46.9311 49.7228L50.7902 51.7902L48.7228 47.9311L50.7902 44.2098Z" fill="white"/>
<path fill-rule="evenodd" clip-rule="evenodd" d="M22.2603 40.4885C22.6738 40.075 23.3629 40.075 23.9142 40.4885L29.7029 46.2772L31.3568 47.9311L31.7703 48.3446C31.7703 49.1715 31.9081 49.8606 32.1838 50.5498L31.3568 51.3767L29.7029 49.585L23.9142 55.3737C23.3629 55.925 22.6738 55.925 22.2603 55.3737C21.709 54.9602 21.709 54.2711 22.2603 53.7198L27.9112 47.9311L22.2603 42.1424C21.709 41.7289 21.709 41.0398 22.2603 40.4885V40.4885Z" fill="white"/>
<path fill-rule="evenodd" clip-rule="evenodd" d="M56.0276 40.4885V40.6263L56.9923 38.9724L57.268 39.2481L59.0597 41.0398L58.6462 41.5911C57.8193 41.0398 56.9923 40.7642 56.0276 40.4885V40.4885Z" fill="white"/>
<path fill-rule="evenodd" clip-rule="evenodd" d="M40.0398 34.0107L30.9433 25.0521C30.5299 24.5008 30.5299 23.8116 30.9433 23.3982C31.4946 22.8469 32.1838 22.8469 32.7351 23.3982L41.6937 32.3568L40.0398 34.0107V34.0107Z" fill="white"/>
<path fill-rule="evenodd" clip-rule="evenodd" d="M58.2328 38.4211L57.5436 37.8698L57.9571 36.9051L57.1302 37.4564L56.5789 36.7672L69.9479 23.3982C70.3614 22.9847 71.0505 22.9847 71.6018 23.3982C72.0153 23.8116 72.0153 24.6386 71.6018 25.0521L58.2328 38.4211V38.4211Z" fill="white"/>
<path fill-rule="evenodd" clip-rule="evenodd" d="M49.5498 64.4701L51.3415 62.6784L61.2649 72.6018C61.6784 73.1531 62.5054 73.1531 62.9188 72.6018C63.4701 72.1884 63.4701 71.3614 62.9188 70.9479L52.9954 61.0245L55.6141 58.268L69.9479 72.6018C70.3614 73.0153 71.0505 73.0153 71.6018 72.6018C72.0153 72.0505 72.0153 71.3614 71.6018 70.9479L57.268 56.6141L60.0245 53.9954L69.9479 63.9188C70.3614 64.4701 71.1884 64.4701 71.6018 63.9188C72.1531 63.5054 72.1531 62.6784 71.6018 62.2649L61.6784 52.3415L64.2971 49.585L70.0858 55.3737C70.4992 55.925 71.3262 55.925 71.7397 55.3737C72.1531 54.9602 72.1531 54.2711 71.7397 53.7198L61.6784 43.6585L71.6018 33.7351C72.0153 33.1838 72.1531 32.4946 71.6018 31.9433C71.1884 31.5299 70.3614 31.5299 69.9479 31.9433L60.0245 42.0046L59.611 42.2802C61.1271 43.5207 62.0919 45.4502 62.2297 47.5176L62.6432 47.9311L62.2297 48.3446C61.9541 51.928 59.4732 54.8224 56.0276 55.3737L57.9571 58.9571L54.3737 57.0276C53.8224 60.1976 51.3415 62.6784 48.1715 63.0919L49.5498 64.4701V64.4701Z" fill="white"/>
<path fill-rule="evenodd" clip-rule="evenodd" d="M52.9954 34.9755L62.9188 25.0521C63.4701 24.5008 63.4701 23.8116 62.9188 23.3982C62.5054 22.8469 61.6784 22.8469 61.2649 23.3982L52.1685 32.4946L50.7902 33.7351C52.7198 34.8377 53.9602 36.7672 54.3737 38.8346L56.0276 38.0077L55.6141 37.5942L52.9954 34.9755V34.9755Z" fill="white"/>
<path fill-rule="evenodd" clip-rule="evenodd" d="M66.9158 47.1041L65.124 45.4502L70.0858 40.4885C70.4992 40.075 71.3262 40.075 71.7397 40.4885C72.1531 41.0398 72.1531 41.7289 71.7397 42.1424L66.9158 47.1041V47.1041Z" fill="white"/>
<path fill-rule="evenodd" clip-rule="evenodd" d="M49.5498 29.7381L47.8959 28.0842L52.7198 23.2603C53.2711 22.709 53.9602 22.709 54.3737 23.2603C54.925 23.6738 54.925 24.3629 54.3737 24.9142L49.5498 29.7381Z" fill="white"/>
<path fill-rule="evenodd" clip-rule="evenodd" d="M24.0521 63.9188L33.9755 53.9954L36.5942 56.6141L22.3982 70.9479C21.9847 71.3614 21.9847 72.0505 22.3982 72.6018C22.8116 73.0153 23.6386 73.0153 24.0521 72.6018L38.2481 58.268L40.0398 60.0597L40.5911 59.6463C40.0398 58.8193 39.7642 57.9923 39.6263 57.0276L35.9051 58.9571L37.8346 55.3737C35.7672 54.9602 33.8377 53.7198 32.7351 51.7902L32.3216 52.3415L31.7703 52.755L22.3982 62.2649C21.8469 62.6784 21.8469 63.5054 22.3982 63.9188C22.8116 64.4701 23.5008 64.4701 24.0521 63.9188Z" fill="white"/>
<path fill-rule="evenodd" clip-rule="evenodd" d="M41.2802 60.611C42.6585 62.1271 44.4502 63.0919 46.5176 63.2297L46.9311 63.6432L48.585 65.2971L54.3737 71.0858C54.925 71.4992 54.925 72.3262 54.3737 72.7397C53.9602 73.1531 53.2711 73.1531 52.7198 72.7397L46.9311 66.951L41.1424 72.7397C40.7289 73.1531 40.0398 73.1531 39.4885 72.7397C39.075 72.3262 39.075 71.4992 39.4885 71.0858L45.2772 65.2971L42.6585 62.6784L32.7351 72.6018C32.1838 73.1531 31.4946 73.1531 30.9433 72.6018C30.5299 72.1884 30.5299 71.3614 30.9433 70.9479L40.3155 61.5758L41.2802 60.611V60.611Z" fill="white"/>
<path fill-rule="evenodd" clip-rule="evenodd" d="M22.3982 31.9433C21.8469 32.4946 21.8469 33.1838 22.3982 33.7351L31.3568 42.6937L33.0107 41.0398L24.0521 31.9433C23.5008 31.5299 22.8116 31.5299 22.3982 31.9433V31.9433Z" fill="white"/>
<path fill-rule="evenodd" clip-rule="evenodd" d="M50.3767 32.3568L41.1424 23.2603C40.7289 22.709 40.0398 22.709 39.4885 23.2603C39.075 23.6738 39.075 24.3629 39.4885 24.9142L45.2772 30.7029L38.2481 37.5942L24.0521 23.3982C23.6386 22.9847 22.8116 22.9847 22.3982 23.3982C21.9847 23.8116 21.9847 24.6386 22.3982 25.0521L36.5942 39.2481L30.5299 45.4502L31.7703 46.8285C32.3216 43.6585 34.8024 41.1776 37.8346 40.4885V40.6263L35.9051 36.9051L39.6263 38.8346C40.1776 35.5268 43.072 32.9081 46.5176 32.7703L46.9311 32.3568L47.3446 32.7703C48.1715 32.7703 48.8606 32.9081 49.5498 33.1838L50.3767 32.3568V32.3568Z" fill="white"/>
<path fill-rule="evenodd" clip-rule="evenodd" d="M39.6263 41.0398H39.4885H39.3507H39.2129H39.075C39.3507 41.0398 39.6263 41.0398 39.902 41.0398H40.0398V40.902V41.0398H39.902H39.6263V41.0398Z" fill="white"/>
<path fill-rule="evenodd" clip-rule="evenodd" d="M54.2358 54.9602H54.5115H54.6493H54.7871C54.6493 54.9602 54.3737 54.9602 54.098 54.9602H53.9602V55.098V54.9602H54.098H54.2358V54.9602Z" fill="white"/>
<path fill-rule="evenodd" clip-rule="evenodd" d="M39.2129 54.9602H39.3507H39.4885H39.6263H39.902H40.0398V55.098V54.9602H39.902C39.6263 54.9602 39.3507 54.9602 39.075 54.9602H39.2129V54.9602Z" fill="white"/>
</g>
<rect x="0.5" y="0.5" width="94" height="94" rx="9.5" stroke="white"/>
<defs>
<clipPath id="clip0_2_2">
<rect width="90" height="90" fill="white" transform="translate(2 3)"/>
</clipPath>
</defs>
</svg>
