<svg xmlns="http://www.w3.org/2000/svg" xmlns:xlink="http://www.w3.org/1999/xlink" xmlns:xodm="http://www.corel.com/coreldraw/odm/2003" xml:space="preserve" width="70" height="70" version="1.1" style="shape-rendering:geometricPrecision; text-rendering:geometricPrecision; image-rendering:optimizeQuality; fill-rule:evenodd; clip-rule:evenodd" viewBox="0 0 6.53 6.53"> <defs> <style type="text/css"> <![CDATA[ .fil0 {fill:#128CDB} .fil1 {fill:white} ]]> </style> </defs> <g id="Слой_x0020_1"> <metadata id="CorelCorpID_0Corel-Layer"/> <polygon class="fil0" points="0,0 6.53,0 6.53,6.53 0,6.53 "/> <g id="_1821108796608"> <g> <path class="fil1" d="M3.87 2.77c0.24,0.04 0.42,0.25 0.42,0.49 0,0.25 -0.18,0.46 -0.42,0.5l0.13 0.24 -0.24 -0.13c0,0 -0.08,0.42 -0.5,0.42 -0.24,0 -0.45,-0.18 -0.49,-0.41l-0.25 0.12 0.13 -0.24c-0.23,-0.04 -0.41,-0.25 -0.41,-0.5 0,-0.24 0.17,-0.45 0.41,-0.49l-0.13 -0.25 0.25 0.13c0.06,-0.24 0.24,-0.41 0.49,-0.41 0.42,0 0.5,0.41 0.5,0.41l0.24 -0.13 -0.13 0.25zm-0.97 0.86c0,0.25 0.02,0.51 0.36,0.51 0.27,0 0.44,-0.26 0.37,-0.51l0 0c0.25,0.07 0.51,-0.1 0.51,-0.37 0,-0.26 -0.27,-0.43 -0.51,-0.36 0.07,-0.25 -0.1,-0.51 -0.37,-0.51 -0.26,0 -0.43,0.26 -0.36,0.51 -0.25,-0.08 -0.51,0.1 -0.51,0.36 0,0.27 0.26,0.44 0.51,0.37z"/> </g> <polygon class="fil1" points="3.54,2.99 3.26,3.14 2.99,2.99 3.14,3.26 2.99,3.54 3.26,3.39 3.54,3.54 3.39,3.26 "/> <path class="fil1" d="M1.47 2.72l0 0c0.03,-0.03 0.08,-0.03 0.12,0l0.42 0.42 0.12 0.12 0.03 0.03c0,0.06 0.01,0.11 0.03,0.16l-0.06 0.06 -0.12 -0.13 -0.42 0.42c-0.04,0.04 -0.09,0.04 -0.12,0 -0.04,-0.03 -0.04,-0.08 0,-0.12l0.41 -0.42 -0.41 -0.42c-0.04,-0.03 -0.04,-0.08 0,-0.12z"/> <polygon class="fil1" points="3.75,3.68 3.75,3.68 3.75,3.68 "/> <path class="fil1" d="M3.92 2.72l0 0.01 0.07 -0.12 0.02 0.02 0 0 0.13 0.13 -0.03 0.04c-0.06,-0.04 -0.12,-0.06 -0.19,-0.08l0 0z"/> <path class="fil1" d="M2.76 2.25l-0.66 -0.65c-0.03,-0.04 -0.03,-0.09 0,-0.12 0.04,-0.04 0.09,-0.04 0.13,0l0.65 0.65 -0.12 0.12z"/> <path class="fil1" d="M4.08 2.57l-0.05 -0.04 0.03 -0.07 -0.06 0.04 -0.04 -0.05 0.97 -0.97c0.03,-0.03 0.08,-0.03 0.12,0l0 0c0.03,0.03 0.03,0.09 0,0.12l-0.97 0.97z"/> <path class="fil1" d="M3.45 4.46l0.13 -0.13 0.72 0.72c0.03,0.04 0.09,0.04 0.12,0 0.04,-0.03 0.04,-0.09 0,-0.12l-0.72 -0.72 0.19 -0.2 1.04 1.04c0.03,0.03 0.08,0.03 0.12,0 0.03,-0.04 0.03,-0.09 0,-0.12l-1.04 -1.04 0.2 -0.19 0.72 0.72c0.03,0.04 0.09,0.04 0.12,0 0.04,-0.03 0.04,-0.09 0,-0.12l-0.72 -0.72 0.19 -0.2 0.42 0.42c0.03,0.04 0.09,0.04 0.12,0l0 0c0.03,-0.03 0.03,-0.08 0,-0.12l-0.73 -0.73 0.72 -0.72c0.03,-0.04 0.04,-0.09 0,-0.13 -0.03,-0.03 -0.09,-0.03 -0.12,0l-0.72 0.73 0 0 -0.03 0.02c0.11,0.09 0.18,0.23 0.19,0.38l0.03 0.03 -0.03 0.03c-0.02,0.26 -0.2,0.47 -0.45,0.51l0 0 0.14 0.26 -0.26 -0.14 0 0c-0.04,0.23 -0.22,0.41 -0.45,0.44l0.1 0.1z"/> <path class="fil1" d="M3.7 2.32l0.72 -0.72c0.04,-0.04 0.04,-0.09 0,-0.12l0 0c-0.03,-0.04 -0.09,-0.04 -0.12,0l-0.66 0.66 -0.1 0.09c0.14,0.08 0.23,0.22 0.26,0.37l0 0 0 0 0.12 -0.06 -0.03 -0.03 0 0 -0.19 -0.19z"/> <path class="fil1" d="M4.71 3.2l-0.13 -0.12 0.36 -0.36c0.03,-0.03 0.09,-0.03 0.12,0l0 0c0.03,0.04 0.03,0.09 0,0.12l-0.35 0.36z"/> <path class="fil1" d="M3.45 1.94l-0.12 -0.12 0.35 -0.35c0.04,-0.04 0.09,-0.04 0.12,0 0.04,0.03 0.04,0.08 0,0.12l-0.35 0.35z"/> <path class="fil1" d="M1.6 4.42l0.72 -0.72 0.19 0.19 -1.03 1.04c-0.03,0.03 -0.03,0.08 0,0.12l0 0c0.03,0.03 0.09,0.03 0.12,0l1.03 -1.04 0.13 0.13 0.04 -0.03c-0.04,-0.06 -0.06,-0.12 -0.07,-0.19l0 0 0 0 -0.27 0.14 0.14 -0.26 0 0 0 0c-0.15,-0.03 -0.29,-0.12 -0.37,-0.26l-0.03 0.04 -0.04 0.03 -0.68 0.69c-0.04,0.03 -0.04,0.09 0,0.12 0.03,0.04 0.08,0.04 0.12,0z"/> <path class="fil1" d="M2.85 4.18c0.1,0.11 0.23,0.18 0.38,0.19l0.03 0.03 0.12 0.12 0.42 0.42c0.04,0.03 0.04,0.09 0,0.12 -0.03,0.03 -0.08,0.03 -0.12,0l-0.42 -0.42 -0.42 0.42c-0.03,0.03 -0.08,0.03 -0.12,0 -0.03,-0.03 -0.03,-0.09 0,-0.12l0.42 -0.42 -0.19 -0.19 -0.72 0.72c-0.04,0.04 -0.09,0.04 -0.13,0l0 0c-0.03,-0.03 -0.03,-0.09 0,-0.12l0.68 -0.68 0.07 -0.07z"/> <path class="fil1" d="M1.48 2.1l0 0c-0.04,0.04 -0.04,0.09 0,0.13l0.65 0.65 0.12 -0.12 -0.65 -0.66c-0.04,-0.03 -0.09,-0.03 -0.12,0z"/> <path class="fil1" d="M3.51 2.13l-0.67 -0.66c-0.03,-0.04 -0.08,-0.04 -0.12,0 -0.03,0.03 -0.03,0.08 0,0.12l0.42 0.42 -0.51 0.5 -1.03 -1.03c-0.03,-0.03 -0.09,-0.03 -0.12,0l0 0c-0.03,0.03 -0.03,0.09 0,0.12l1.03 1.03 -0.44 0.45 0.09 0.1c0.04,-0.23 0.22,-0.41 0.44,-0.46l0 0.01 -0.14 -0.27 0.27 0.14 0 0c0.04,-0.24 0.25,-0.43 0.5,-0.44l0.03 -0.03 0.03 0.03c0.06,0 0.11,0.01 0.16,0.03l0.06 -0.06z"/> <path class="fil1" d="M0.35 0.35l5.83 0 0 5.83 -5.83 0 0 -5.83zm5.9 -0.13l-6.03 0 0 6.09 6.09 0 0 -6.09 -0.06 0z"/> <path class="fil1" d="M2.73 2.76l0 0 -0.01 0 0 0 -0.01 0 0 0 0 0 -0.01 0 -0.01 0c0.02,0 0.04,0 0.06,0l0.01 0 0 -0.01 0 0.01 -0.01 0 -0.02 0z"/> <path class="fil1" d="M2.76 2.7l0 0.01 0 0 0 0.01 0 0 0 0.01 0 0 0 0.02c0,-0.02 0,-0.04 0,-0.05l0 0z"/> <path class="fil1" d="M3.79 3.77l0 0 0.02 0 0 0 0.01 0 0 0 0 0 0.01 0 0 0c-0.01,0 -0.03,0 -0.05,0l-0.01 0 0 0.01 0 0 0 -0.01 0.01 0 0.01 0z"/> <path class="fil1" d="M3.77 3.83l0 -0.01 0 0 0 0 0 0 0 -0.01 0 0 0 -0.02 0 0 0 -0.01c0,0.02 0,0.03 0,0.05l0 0z"/> <path class="fil1" d="M2.76 3.79l0 0.02 0 0 0 0.01 0 0 0 0.01 0 0c0,-0.02 0,-0.03 0,-0.05l0 0.01 0 0z"/> <path class="fil1" d="M2.7 3.77l0.01 0 0 0 0 0 0.01 0 0 0 0.01 0 0 0 0.02 0 0.01 0 0 0.01 0 0 0 -0.01 -0.01 0c-0.02,0 -0.04,0 -0.06,0l0.01 0z"/> </g> </g> </svg>