<svg width="100" height="100" viewBox="0 0 100 100" fill="none" xmlns="http://www.w3.org/2000/svg">
<g clip-path="url(#clip0_0_3)">
<path fill-rule="evenodd" clip-rule="evenodd" d="M0 0H100V100H0V0Z" fill="#128CDB"/>
<path fill-rule="evenodd" clip-rule="evenodd" d="M59.2649 42.4196C62.9403 43.0322 65.6968 46.2481 65.6968 49.9234C65.6968 53.7519 62.9403 56.9678 59.2649 57.5804L61.2557 61.2557L57.5804 59.2649C57.5804 59.2649 56.3553 65.6968 49.9234 65.6968C46.2481 65.6968 43.0322 62.9403 42.4196 59.4181L38.5911 61.2557L40.5819 57.5804C37.0597 56.9678 34.3032 53.7519 34.3032 49.9234C34.3032 46.2481 36.9066 43.0322 40.5819 42.4196L38.5911 38.5911L42.4196 40.5819C43.3384 36.9066 46.0949 34.3032 49.9234 34.3032C56.3553 34.3032 57.5804 40.5819 57.5804 40.5819L61.2557 38.5911L59.2649 42.4196V42.4196ZM44.4104 55.5896C44.4104 59.4181 44.7167 63.3997 49.9234 63.3997C54.0582 63.3997 56.6616 59.4181 55.5896 55.5896C59.4181 56.6616 63.3997 54.0582 63.3997 49.9234C63.3997 45.9418 59.2649 43.3384 55.5896 44.4104C56.6616 40.5819 54.0582 36.6003 49.9234 36.6003C45.9418 36.6003 43.3384 40.5819 44.4104 44.4104C40.5819 43.1853 36.6003 45.9418 36.6003 49.9234C36.6003 54.0582 40.5819 56.6616 44.4104 55.5896V55.5896Z" fill="white"/>
<path fill-rule="evenodd" clip-rule="evenodd" d="M54.2113 45.7887L49.9234 48.0858L45.7887 45.7887L48.0858 49.9234L45.7887 54.2113L49.9234 51.9142L54.2113 54.2113L51.9142 49.9234L54.2113 45.7887Z" fill="white"/>
<path fill-rule="evenodd" clip-rule="evenodd" d="M22.5115 41.6539C22.9709 41.1945 23.7366 41.1945 24.3492 41.6539L30.781 48.0858L32.6187 49.9234L33.0781 50.3828C33.0781 51.3017 33.2312 52.0674 33.5375 52.8331L32.6187 53.7519L30.781 51.7611L24.3492 58.193C23.7366 58.8055 22.9709 58.8055 22.5115 58.193C21.8989 57.7335 21.8989 56.9678 22.5115 56.3553L28.7902 49.9234L22.5115 43.4916C21.8989 43.0322 21.8989 42.2665 22.5115 41.6539V41.6539Z" fill="white"/>
<path fill-rule="evenodd" clip-rule="evenodd" d="M60.0306 41.6539V41.807L61.1026 39.9694L61.4089 40.2757L63.3997 42.2665L62.9403 42.879C62.0214 42.2665 61.1026 41.9602 60.0306 41.6539V41.6539Z" fill="white"/>
<path fill-rule="evenodd" clip-rule="evenodd" d="M42.2665 34.4564L32.1593 24.5023C31.6998 23.8897 31.6998 23.124 32.1593 22.6646C32.7718 22.0521 33.5375 22.0521 34.1501 22.6646L44.1041 32.6187L42.2665 34.4564V34.4564Z" fill="white"/>
<path fill-rule="evenodd" clip-rule="evenodd" d="M62.4809 39.3568L61.7152 38.7443L62.1746 37.6723L61.2557 38.2848L60.6432 37.5191L75.4977 22.6646C75.9571 22.2052 76.7228 22.2052 77.3354 22.6646C77.7948 23.124 77.7948 24.0429 77.3354 24.5023L62.4809 39.3568V39.3568Z" fill="white"/>
<path fill-rule="evenodd" clip-rule="evenodd" d="M52.8331 68.3002L54.8239 66.3093L65.8499 77.3354C66.3093 77.9479 67.2282 77.9479 67.6876 77.3354C68.3002 76.876 68.3002 75.9571 67.6876 75.4977L56.6616 64.4717L59.5712 61.4089L75.4977 77.3354C75.9571 77.7948 76.7228 77.7948 77.3354 77.3354C77.7948 76.7228 77.7948 75.9571 77.3354 75.4977L61.4089 59.5712L64.4717 56.6616L75.4977 67.6876C75.9571 68.3002 76.876 68.3002 77.3354 67.6876C77.9479 67.2282 77.9479 66.3093 77.3354 65.8499L66.3093 54.8239L69.219 51.7611L75.6508 58.193C76.1103 58.8055 77.0291 58.8055 77.4885 58.193C77.9479 57.7335 77.9479 56.9678 77.4885 56.3553L66.3093 45.1761L77.3354 34.1501C77.7948 33.5375 77.9479 32.7718 77.3354 32.1593C76.876 31.6998 75.9571 31.6998 75.4977 32.1593L64.4717 43.3384L64.0123 43.6447C65.6968 45.023 66.7688 47.1669 66.9219 49.464L67.3813 49.9234L66.9219 50.3828C66.6156 54.3645 63.8591 57.5804 60.0306 58.193L62.1746 62.1746L58.193 60.0306C57.5804 63.5528 54.8239 66.3093 51.3017 66.7688L52.8331 68.3002V68.3002Z" fill="white"/>
<path fill-rule="evenodd" clip-rule="evenodd" d="M56.6616 35.5283L67.6876 24.5023C68.3002 23.8897 68.3002 23.124 67.6876 22.6646C67.2282 22.0521 66.3093 22.0521 65.8499 22.6646L55.7427 32.7718L54.2113 34.1501C56.3553 35.3752 57.7335 37.5191 58.193 39.8162L60.0306 38.8974L59.5712 38.438L56.6616 35.5283V35.5283Z" fill="white"/>
<path fill-rule="evenodd" clip-rule="evenodd" d="M72.1286 49.0046L70.1378 47.1669L75.6508 41.6539C76.1103 41.1945 77.0291 41.1945 77.4885 41.6539C77.9479 42.2665 77.9479 43.0322 77.4885 43.4916L72.1286 49.0046V49.0046Z" fill="white"/>
<path fill-rule="evenodd" clip-rule="evenodd" d="M52.8331 29.709L50.9954 27.8714L56.3553 22.5115C56.9678 21.8989 57.7335 21.8989 58.193 22.5115C58.8055 22.9709 58.8055 23.7366 58.193 24.3492L52.8331 29.709Z" fill="white"/>
<path fill-rule="evenodd" clip-rule="evenodd" d="M24.5023 67.6876L35.5283 56.6616L38.438 59.5712L22.6646 75.4977C22.2052 75.9571 22.2052 76.7228 22.6646 77.3354C23.124 77.7948 24.0429 77.7948 24.5023 77.3354L40.2756 61.4089L42.2665 63.3997L42.879 62.9403C42.2665 62.0214 41.9602 61.1026 41.807 60.0306L37.6723 62.1746L39.8162 58.193C37.5191 57.7335 35.3752 56.3553 34.1501 54.2113L33.6907 54.8239L33.0781 55.2833L22.6646 65.8499C22.0521 66.3093 22.0521 67.2282 22.6646 67.6876C23.124 68.3002 23.8897 68.3002 24.5023 67.6876Z" fill="white"/>
<path fill-rule="evenodd" clip-rule="evenodd" d="M43.6447 64.0123C45.1761 65.6968 47.1669 66.7688 49.464 66.9219L49.9234 67.3813L51.7611 69.219L58.193 75.6508C58.8055 76.1103 58.8055 77.0291 58.193 77.4885C57.7335 77.9479 56.9678 77.9479 56.3553 77.4885L49.9234 71.0567L43.4916 77.4885C43.0322 77.9479 42.2665 77.9479 41.6539 77.4885C41.1945 77.0291 41.1945 76.1103 41.6539 75.6508L48.0858 69.219L45.1761 66.3093L34.1501 77.3354C33.5375 77.9479 32.7718 77.9479 32.1593 77.3354C31.6998 76.876 31.6998 75.9571 32.1593 75.4977L42.5727 65.0842L43.6447 64.0123V64.0123Z" fill="white"/>
<path fill-rule="evenodd" clip-rule="evenodd" d="M22.6646 32.1593C22.0521 32.7718 22.0521 33.5375 22.6646 34.1501L32.6187 44.1041L34.4563 42.2665L24.5023 32.1593C23.8897 31.6998 23.124 31.6998 22.6646 32.1593V32.1593Z" fill="white"/>
<path fill-rule="evenodd" clip-rule="evenodd" d="M53.7519 32.6187L43.4916 22.5115C43.0322 21.8989 42.2665 21.8989 41.6539 22.5115C41.1945 22.9709 41.1945 23.7366 41.6539 24.3492L48.0858 30.781L40.2757 38.438L24.5023 22.6646C24.0429 22.2052 23.1241 22.2052 22.6646 22.6646C22.2052 23.124 22.2052 24.0429 22.6646 24.5023L38.438 40.2757L31.6999 47.1669L33.0781 48.6983C33.6907 45.1761 36.4472 42.4196 39.8162 41.6539V41.807L37.6723 37.6723L41.8071 39.8162C42.4196 36.1409 45.6355 33.2312 49.464 33.0781L49.9234 32.6187L50.3829 33.0781C51.3017 33.0781 52.0674 33.2312 52.8331 33.5375L53.7519 32.6187V32.6187Z" fill="white"/>
<path fill-rule="evenodd" clip-rule="evenodd" d="M41.807 42.2665H41.6539H41.5008H41.3476H41.1945C41.5008 42.2665 41.807 42.2665 42.1133 42.2665H42.2665V42.1133V42.2665H42.1133H41.807V42.2665Z" fill="white"/>
<path fill-rule="evenodd" clip-rule="evenodd" d="M58.0398 57.7335H58.3461H58.4992H58.6524C58.4992 57.7335 58.193 57.7335 57.8867 57.7335H57.7335V57.8867V57.7335H57.8867H58.0398V57.7335Z" fill="white"/>
<path fill-rule="evenodd" clip-rule="evenodd" d="M41.3476 57.7335H41.5008H41.6539H41.807H42.1133H42.2665V57.8867V57.7335H42.1133C41.807 57.7335 41.5008 57.7335 41.1945 57.7335H41.3476V57.7335Z" fill="white"/>
<rect x="4.58163" y="4.58163" width="90.8367" height="90.8367" rx="9.5" stroke="white"/>
</g>
<defs>
<clipPath id="clip0_0_3">
<rect width="100" height="100" rx="10" fill="white"/>
</clipPath>
</defs>
</svg>
