<svg width="200" height="200" viewBox="0 0 200 200" fill="none" xmlns="http://www.w3.org/2000/svg">
<rect width="200" height="200" fill="#73A9AD"/>
<path d="M35.44 44C35.22 44 34.99 43.93 34.77 43.88C34.3245 43.7818 33.8867 43.6515 33.46 43.49C32.9961 43.3212 32.4861 43.33 32.0283 43.5146C31.5705 43.6992 31.1971 44.0466 30.98 44.49L30.76 44.94C29.786 44.3982 28.891 43.7252 28.1 42.94C27.3148 42.149 26.6418 41.254 26.1 40.28L26.52 40C26.9634 39.7829 27.3108 39.4095 27.4954 38.9517C27.68 38.4939 27.6888 37.9839 27.52 37.52C27.3612 37.0924 27.2309 36.6548 27.13 36.21C27.08 35.99 27.04 35.76 27.01 35.53C26.8886 34.8256 26.5196 34.1877 25.9696 33.7312C25.4196 33.2747 24.7247 33.0296 24.01 33.04H21.01C20.579 33.036 20.1523 33.1248 19.7587 33.3005C19.3652 33.4763 19.0141 33.7347 18.7294 34.0583C18.4448 34.3819 18.2331 34.763 18.109 35.1757C17.9848 35.5884 17.9511 36.0231 18.01 36.45C18.5427 40.6394 20.456 44.5319 23.4477 47.5126C26.4393 50.4934 30.3387 52.3925 34.53 52.91H34.91C35.6474 52.9111 36.3594 52.6405 36.91 52.15C37.2264 51.867 37.4791 51.5202 37.6515 51.1323C37.8239 50.7445 37.912 50.3244 37.91 49.9V46.9C37.8978 46.2054 37.6448 45.5366 37.1943 45.0077C36.7439 44.4788 36.1238 44.1226 35.44 44V44ZM35.94 50C35.9398 50.142 35.9094 50.2823 35.8508 50.4116C35.7922 50.5409 35.7067 50.6563 35.6 50.75C35.4886 50.847 35.358 50.9194 35.2167 50.9625C35.0754 51.0056 34.9266 51.0184 34.78 51C31.0349 50.5198 27.5562 48.8065 24.8927 46.1303C22.2292 43.4541 20.5324 39.9673 20.07 36.22C20.0541 36.0735 20.068 35.9253 20.111 35.7844C20.154 35.6435 20.2251 35.5127 20.32 35.4C20.4137 35.2933 20.5291 35.2078 20.6584 35.1492C20.7877 35.0906 20.928 35.0602 21.07 35.06H24.07C24.3025 35.0548 24.5296 35.1309 24.7121 35.2751C24.8947 35.4193 25.0212 35.6226 25.07 35.85C25.11 36.1233 25.16 36.3933 25.22 36.66C25.3355 37.1871 25.4893 37.7052 25.68 38.21L24.28 38.86C24.1603 38.9149 24.0526 38.993 23.9632 39.0896C23.8737 39.1863 23.8042 39.2996 23.7587 39.4232C23.7131 39.5468 23.6925 39.6781 23.6978 39.8097C23.7032 39.9413 23.7345 40.0706 23.79 40.19C25.2292 43.2728 27.7072 45.7508 30.79 47.19C31.0335 47.29 31.3065 47.29 31.55 47.19C31.6747 47.1454 31.7893 47.0765 31.8872 46.9872C31.985 46.8979 32.0642 46.7901 32.12 46.67L32.74 45.27C33.257 45.4549 33.7846 45.6085 34.32 45.73C34.5867 45.79 34.8567 45.84 35.13 45.88C35.3574 45.9288 35.5607 46.0553 35.7049 46.2379C35.8491 46.4204 35.9252 46.6475 35.92 46.88L35.94 50Z" fill="#F5F0BB"/>
<path d="M151.94 160.56H155.52L154.73 161.36C154.544 161.547 154.439 161.801 154.439 162.065C154.439 162.329 154.544 162.583 154.73 162.77C154.917 162.956 155.171 163.061 155.435 163.061C155.699 163.061 155.953 162.956 156.14 162.77L158.64 160.27C158.826 160.083 158.931 159.829 158.931 159.565C158.931 159.301 158.826 159.047 158.64 158.86L156.14 156.36C155.949 156.196 155.703 156.111 155.451 156.12C155.199 156.13 154.961 156.234 154.782 156.412C154.604 156.591 154.5 156.829 154.49 157.081C154.481 157.333 154.566 157.579 154.73 157.77L155.52 158.56H151.94C151.675 158.56 151.42 158.665 151.233 158.853C151.045 159.04 150.94 159.295 150.94 159.56C150.94 159.825 151.045 160.08 151.233 160.267C151.42 160.455 151.675 160.56 151.94 160.56V160.56ZM156.44 167C156.22 167 155.99 166.93 155.77 166.88C155.324 166.782 154.887 166.651 154.46 166.49C153.996 166.321 153.486 166.33 153.028 166.515C152.57 166.699 152.197 167.047 151.98 167.49L151.76 167.94C150.786 167.398 149.891 166.725 149.1 165.94C148.315 165.149 147.642 164.254 147.1 163.28L147.52 163C147.963 162.783 148.311 162.41 148.495 161.952C148.68 161.494 148.689 160.984 148.52 160.52C148.361 160.092 148.231 159.655 148.13 159.21C148.08 158.99 148.04 158.76 148.01 158.53C147.889 157.826 147.52 157.188 146.97 156.731C146.42 156.275 145.725 156.03 145.01 156.04H142.01C141.579 156.036 141.152 156.125 140.759 156.301C140.365 156.476 140.014 156.735 139.729 157.058C139.445 157.382 139.233 157.763 139.109 158.176C138.985 158.588 138.951 159.023 139.01 159.45C139.543 163.639 141.456 167.532 144.448 170.513C147.439 173.493 151.339 175.393 155.53 175.91H155.91C156.647 175.911 157.359 175.641 157.91 175.15C158.226 174.867 158.479 174.52 158.651 174.132C158.824 173.744 158.912 173.324 158.91 172.9V169.9C158.898 169.205 158.645 168.537 158.194 168.008C157.744 167.479 157.124 167.123 156.44 167V167ZM156.94 173C156.94 173.142 156.909 173.282 156.851 173.412C156.792 173.541 156.707 173.656 156.6 173.75C156.488 173.846 156.358 173.919 156.216 173.962C156.075 174.005 155.927 174.018 155.78 174C152.035 173.52 148.556 171.806 145.893 169.13C143.229 166.454 141.532 162.967 141.07 159.22C141.054 159.074 141.068 158.925 141.111 158.784C141.154 158.643 141.225 158.513 141.32 158.4C141.414 158.293 141.529 158.208 141.658 158.149C141.788 158.091 141.928 158.06 142.07 158.06H145.07C145.303 158.055 145.53 158.131 145.712 158.275C145.895 158.419 146.021 158.623 146.07 158.85C146.11 159.123 146.16 159.393 146.22 159.66C146.336 160.187 146.489 160.705 146.68 161.21L145.28 161.86C145.16 161.915 145.053 161.993 144.963 162.09C144.874 162.186 144.804 162.3 144.759 162.423C144.713 162.547 144.692 162.678 144.698 162.81C144.703 162.941 144.735 163.071 144.79 163.19C146.229 166.273 148.707 168.751 151.79 170.19C152.033 170.29 152.307 170.29 152.55 170.19C152.675 170.145 152.789 170.076 152.887 169.987C152.985 169.898 153.064 169.79 153.12 169.67L153.74 168.27C154.257 168.455 154.785 168.608 155.32 168.73C155.587 168.79 155.857 168.84 156.13 168.88C156.357 168.929 156.561 169.055 156.705 169.238C156.849 169.42 156.925 169.647 156.92 169.88L156.94 173Z" fill="white"/>
<path d="M144.41 66C144.19 66 143.96 65.93 143.74 65.88C143.295 65.7805 142.857 65.6501 142.43 65.49C141.966 65.3212 141.456 65.33 140.998 65.5146C140.54 65.6992 140.167 66.0466 139.95 66.49L139.73 66.95C138.759 66.3992 137.862 65.7271 137.06 64.95C136.283 64.1484 135.611 63.2512 135.06 62.28L135.52 62.07C135.963 61.8529 136.311 61.4795 136.495 61.0217C136.68 60.5639 136.689 60.0539 136.52 59.59C136.361 59.159 136.231 58.7181 136.13 58.27C136.08 58.05 136.04 57.82 136.01 57.6C135.889 56.8956 135.52 56.2577 134.97 55.8012C134.42 55.3447 133.725 55.0996 133.01 55.11H130C129.577 55.1094 129.159 55.1982 128.773 55.3706C128.387 55.5429 128.042 55.7949 127.76 56.11C127.472 56.4337 127.258 56.8158 127.132 57.23C127.006 57.6443 126.971 58.081 127.03 58.51C127.574 62.6721 129.475 66.5387 132.44 69.51C135.411 72.4748 139.278 74.3764 143.44 74.92C143.57 74.9299 143.7 74.9299 143.83 74.92C144.567 74.9211 145.279 74.6505 145.83 74.16C146.145 73.8782 146.397 73.5329 146.569 73.1469C146.742 72.7609 146.831 72.3428 146.83 71.92V68.92C146.825 68.229 146.581 67.5611 146.14 67.0291C145.699 66.4971 145.088 66.1336 144.41 66ZM144.9 72C144.9 72.1395 144.87 72.2775 144.813 72.4049C144.756 72.5324 144.674 72.6465 144.57 72.74C144.46 72.8399 144.33 72.9141 144.188 72.9573C144.046 73.0006 143.897 73.0117 143.75 72.99C140.018 72.5026 136.55 70.802 133.88 68.15C131.207 65.4775 129.492 61.9974 129 58.25C128.978 58.1033 128.989 57.9537 129.033 57.8119C129.076 57.67 129.15 57.5396 129.25 57.43C129.345 57.3252 129.46 57.2415 129.59 57.1847C129.719 57.1278 129.859 57.0989 130 57.1H133C133.231 57.0944 133.457 57.169 133.639 57.3112C133.822 57.4534 133.949 57.6544 134 57.88C134 58.15 134.09 58.43 134.15 58.7C134.266 59.2239 134.419 59.7386 134.61 60.24L133.21 60.9C132.969 61.0105 132.782 61.2119 132.69 61.46C132.59 61.7035 132.59 61.9765 132.69 62.22C134.129 65.3028 136.607 67.7808 139.69 69.22C139.933 69.32 140.207 69.32 140.45 69.22C140.698 69.1276 140.9 68.9406 141.01 68.7L141.64 67.3C142.156 67.4881 142.684 67.6418 143.22 67.76C143.48 67.82 143.76 67.87 144.03 67.91C144.256 67.9608 144.457 68.0882 144.599 68.2705C144.741 68.4529 144.816 68.6788 144.81 68.91L144.9 72ZM139 55C138.77 55 138.53 55 138.3 55C138.035 55.0225 137.789 55.1495 137.618 55.353C137.446 55.5565 137.362 55.8198 137.385 56.085C137.408 56.3502 137.535 56.5956 137.738 56.7672C137.941 56.9388 138.205 57.0225 138.47 57H139C140.591 57 142.117 57.6321 143.243 58.7574C144.368 59.8826 145 61.4087 145 63C145 63.18 145 63.35 145 63.53C144.978 63.7938 145.061 64.0556 145.232 64.2581C145.402 64.4606 145.646 64.5871 145.91 64.61H145.99C146.24 64.611 146.482 64.5181 146.667 64.3496C146.852 64.1811 146.967 63.9493 146.99 63.7C146.99 63.47 146.99 63.23 146.99 63C146.99 60.88 146.149 58.8467 144.65 57.3467C143.152 55.8467 141.12 55.0027 139 55V55ZM141 63C141 63.2652 141.105 63.5196 141.293 63.7071C141.48 63.8946 141.735 64 142 64C142.265 64 142.52 63.8946 142.707 63.7071C142.895 63.5196 143 63.2652 143 63C143 61.9391 142.579 60.9217 141.828 60.1716C141.078 59.4214 140.061 59 139 59C138.735 59 138.48 59.1054 138.293 59.2929C138.105 59.4804 138 59.7348 138 60C138 60.2652 138.105 60.5196 138.293 60.7071C138.48 60.8946 138.735 61 139 61C139.53 61 140.039 61.2107 140.414 61.5858C140.789 61.9609 141 62.4696 141 63Z" fill="white"/>
<path d="M79.44 125C79.22 125 78.99 124.93 78.77 124.88C78.3245 124.782 77.8867 124.651 77.46 124.49C76.9961 124.321 76.4861 124.33 76.0283 124.515C75.5705 124.699 75.1971 125.047 74.98 125.49L74.76 125.94C73.786 125.398 72.891 124.725 72.1 123.94C71.3148 123.149 70.6418 122.254 70.1 121.28L70.52 121C70.9634 120.783 71.3108 120.41 71.4954 119.952C71.68 119.494 71.6888 118.984 71.52 118.52C71.3612 118.092 71.2309 117.655 71.13 117.21C71.08 116.99 71.04 116.76 71.01 116.53C70.8886 115.826 70.5196 115.188 69.9696 114.731C69.4196 114.275 68.7247 114.03 68.01 114.04H65.01C64.579 114.036 64.1523 114.125 63.7587 114.301C63.3652 114.476 63.0141 114.735 62.7294 115.058C62.4448 115.382 62.2331 115.763 62.109 116.176C61.9848 116.588 61.9511 117.023 62.01 117.45C62.5427 121.639 64.456 125.532 67.4477 128.513C70.4393 131.493 74.3387 133.393 78.53 133.91H78.91C79.6474 133.911 80.3594 133.641 80.91 133.15C81.2264 132.867 81.4791 132.52 81.6515 132.132C81.8239 131.744 81.912 131.324 81.91 130.9V127.9C81.8978 127.205 81.6448 126.537 81.1943 126.008C80.7439 125.479 80.1238 125.123 79.44 125V125ZM79.94 131C79.9398 131.142 79.9094 131.282 79.8508 131.412C79.7922 131.541 79.7067 131.656 79.6 131.75C79.4904 131.85 79.36 131.924 79.2181 131.967C79.0763 132.011 78.9267 132.022 78.78 132C75.0349 131.52 71.5562 129.806 68.8927 127.13C66.2292 124.454 64.5324 120.967 64.07 117.22C64.0541 117.074 64.068 116.925 64.111 116.784C64.154 116.643 64.2251 116.513 64.32 116.4C64.4137 116.293 64.5291 116.208 64.6584 116.149C64.7877 116.091 64.928 116.06 65.07 116.06H68.07C68.3025 116.055 68.5296 116.131 68.7121 116.275C68.8947 116.419 69.0212 116.623 69.07 116.85C69.11 117.123 69.16 117.393 69.22 117.66C69.3355 118.187 69.4893 118.705 69.68 119.21L68.28 119.86C68.1603 119.915 68.0526 119.993 67.9632 120.09C67.8737 120.186 67.8042 120.3 67.7587 120.423C67.7131 120.547 67.6925 120.678 67.6978 120.81C67.7032 120.941 67.7345 121.071 67.79 121.19C69.2292 124.273 71.7072 126.751 74.79 128.19C75.0335 128.29 75.3065 128.29 75.55 128.19C75.6747 128.145 75.7893 128.076 75.8872 127.987C75.985 127.898 76.0642 127.79 76.12 127.67L76.74 126.27C77.257 126.455 77.7846 126.608 78.32 126.73C78.5867 126.79 78.8567 126.84 79.13 126.88C79.3574 126.929 79.5607 127.055 79.7049 127.238C79.8491 127.42 79.9252 127.647 79.92 127.88L79.94 131ZM79 122C79.2652 122 79.5196 121.895 79.7071 121.707C79.8946 121.52 80 121.265 80 121V117C80 116.735 79.8946 116.48 79.7071 116.293C79.5196 116.105 79.2652 116 79 116C78.7348 116 78.4804 116.105 78.2929 116.293C78.1054 116.48 78 116.735 78 117V121C78 121.265 78.1054 121.52 78.2929 121.707C78.4804 121.895 78.7348 122 79 122ZM75 122C75.2652 122 75.5196 121.895 75.7071 121.707C75.8946 121.52 76 121.265 76 121V117C76 116.735 75.8946 116.48 75.7071 116.293C75.5196 116.105 75.2652 116 75 116C74.7348 116 74.4804 116.105 74.2929 116.293C74.1054 116.48 74 116.735 74 117V121C74 121.265 74.1054 121.52 74.2929 121.707C74.4804 121.895 74.7348 122 75 122Z" fill="#F5F0BB"/>
</svg>
